<svg xmlns="http://www.w3.org/2000/svg" viewBox="0 0 1200 800" role="img" aria-label="Ilustrasi dago 1">
<defs><linearGradient id="s" x1="0" y1="0" x2="0" y2="1"><stop offset="0" stop-color="#f6d6c0"/><stop offset="1" stop-color="#fdf1e6"/></linearGradient></defs>
<rect width="1200" height="800" fill="url(#s)"/>
<circle cx="1000" cy="150" r="70" fill="#fff6c8" opacity="0.9"/>
<ellipse cx="260" cy="170" rx="120" ry="34" fill="#fff" opacity="0.75"/><ellipse cx="340" cy="150" rx="90" ry="30" fill="#fff" opacity="0.75"/>
<rect y="640" width="1200" height="160" fill="#8fc79a"/>
<rect y="700" width="1200" height="100" fill="#6fb283"/>
<rect x="280" y="170" width="640" height="480" fill="#e4ece7"/>
<polygon points="250,170 950,170 880,90 320,90" fill="#34506b"/>
<rect x="320" y="210" width="78" height="86" rx="6" fill="#c9dbe6" stroke="#fff" stroke-width="6"/>
<rect x="314" y="298" width="90" height="8" rx="3" fill="#c2603a"/>
<rect x="438" y="210" width="78" height="86" rx="6" fill="#ffe9a8" stroke="#fff" stroke-width="6"/>
<rect x="432" y="298" width="90" height="8" rx="3" fill="#c2603a"/>
<rect x="556" y="210" width="78" height="86" rx="6" fill="#ffe9a8" stroke="#fff" stroke-width="6"/>
<rect x="550" y="298" width="90" height="8" rx="3" fill="#c2603a"/>
<rect x="674" y="210" width="78" height="86" rx="6" fill="#ffe9a8" stroke="#fff" stroke-width="6"/>
<rect x="668" y="298" width="90" height="8" rx="3" fill="#c2603a"/>
<rect x="792" y="210" width="78" height="86" rx="6" fill="#c9dbe6" stroke="#fff" stroke-width="6"/>
<rect x="786" y="298" width="90" height="8" rx="3" fill="#c2603a"/>
<rect x="320" y="340" width="78" height="86" rx="6" fill="#ffe9a8" stroke="#fff" stroke-width="6"/>
<rect x="314" y="428" width="90" height="8" rx="3" fill="#c2603a"/>
<rect x="438" y="340" width="78" height="86" rx="6" fill="#c9dbe6" stroke="#fff" stroke-width="6"/>
<rect x="432" y="428" width="90" height="8" rx="3" fill="#c2603a"/>
<rect x="556" y="340" width="78" height="86" rx="6" fill="#c9dbe6" stroke="#fff" stroke-width="6"/>
<rect x="550" y="428" width="90" height="8" rx="3" fill="#c2603a"/>
<rect x="674" y="340" width="78" height="86" rx="6" fill="#ffe9a8" stroke="#fff" stroke-width="6"/>
<rect x="668" y="428" width="90" height="8" rx="3" fill="#c2603a"/>
<rect x="792" y="340" width="78" height="86" rx="6" fill="#c9dbe6" stroke="#fff" stroke-width="6"/>
<rect x="786" y="428" width="90" height="8" rx="3" fill="#c2603a"/>
<rect x="320" y="470" width="78" height="86" rx="6" fill="#ffe9a8" stroke="#fff" stroke-width="6"/>
<rect x="314" y="558" width="90" height="8" rx="3" fill="#c2603a"/>
<rect x="438" y="470" width="78" height="86" rx="6" fill="#ffe9a8" stroke="#fff" stroke-width="6"/>
<rect x="432" y="558" width="90" height="8" rx="3" fill="#c2603a"/>
<rect x="556" y="470" width="78" height="86" rx="6" fill="#ffe9a8" stroke="#fff" stroke-width="6"/>
<rect x="550" y="558" width="90" height="8" rx="3" fill="#c2603a"/>
<rect x="674" y="470" width="78" height="86" rx="6" fill="#ffe9a8" stroke="#fff" stroke-width="6"/>
<rect x="668" y="558" width="90" height="8" rx="3" fill="#c2603a"/>
<rect x="792" y="470" width="78" height="86" rx="6" fill="#ffe9a8" stroke="#fff" stroke-width="6"/>
<rect x="786" y="558" width="90" height="8" rx="3" fill="#c2603a"/>
<rect x="555" y="540" width="90" height="110" rx="8" fill="#c2603a"/>
<circle cx="626" cy="595" r="5" fill="#fff"/>
<rect x="142" y="560" width="16" height="100" fill="#7a5a3a"/><circle cx="150" cy="540" r="62" fill="#3e9a63"/><circle cx="116" cy="575" r="42" fill="#4cae74"/>
<rect x="1052" y="560" width="16" height="100" fill="#7a5a3a"/><circle cx="1060" cy="540" r="62" fill="#3e9a63"/><circle cx="1026" cy="575" r="42" fill="#4cae74"/>
<text x="40" y="770" font-family="Arial, sans-serif" font-size="26" fill="#ffffff" opacity="0.9">Ilustrasi demo URSSET</text>
</svg>